<?xml version="1.0" ?><!DOCTYPE svg  PUBLIC '-//W3C//DTD SVG 1.1//EN'  'http://www.w3.org/Graphics/SVG/1.1/DTD/svg11.dtd'><svg enable-background="new 0 0 300 300" height="300px" id="Layer_1" version="1.1" viewBox="0 0 300 300" width="300px" xml:space="preserve" xmlns="http://www.w3.org/2000/svg" xmlns:xlink="http://www.w3.org/1999/xlink"><g><path d="M290.552,216.536c0.298,0.002,0.596-0.051,0.89-0.131c0.146-0.024,0.295-0.041,0.441-0.065   c2.077-0.347,2.757-2.004,2.455-3.597c-0.006-0.496-0.114-1.016-0.363-1.545c-6.033-12.808-17.336-22.888-25.605-34.171   c-10.872-14.834-20.07-30.833-28.804-46.992c-18.439-34.119-37.199-68.357-52.523-104.016c-0.421-0.978-1.28-1.505-2.237-1.661   c-0.597-0.19-1.219-0.237-1.804-0.127c-25.404-1.319-51.053-4.405-76.461-1.771c-0.667-0.96-1.407-1.887-2.259-2.76   c-8.563-8.773-22.117-1.636-32.571-2.46c-5.767-0.455-10.874-2.318-16.105,1.231c-1.367,0.927-2.82,2.587-3.322,4.188   c-0.3,0.958-0.495,1.902-0.669,2.89c-0.056,0.318-0.209,0.818-0.335,1.283C32.405,31.158,15.754,41.147,6.872,59.69   c-0.235,0.491-0.349,0.973-0.371,1.437c-0.393,0.69-0.531,1.551-0.222,2.554c5.093,16.551,10.265,33.101,17.514,48.861   c8.028,17.455,14.223,35.781,21.561,53.532c7.031,17.008,15.803,33.146,22.97,50.082c3.47,8.2,7.325,16.191,10.985,24.302   c3.611,8.002,6.814,16.179,10.742,24.035c0.087,0.238,0.204,0.479,0.355,0.722c0.129,0.254,0.274,0.478,0.432,0.673   c7.739,12.202,17.726,22.852,32.948,24.337c6.83,0.667,13.565-0.201,20.276-1.466c9.131-1.72,18.25-3.483,27.398-5.114   c34.671-6.181,69.592-10.636,104.292-16.539c0.002,0,0.004-0.001,0.006-0.002c6.056-0.829,12.844-2.119,16.264-7.689   c1.796-2.922,0.78-7.476-1.237-10.021c-1.372-1.729-3.16-2.678-5.126-3.234c-0.97-3.786-1.917-7.531-2.112-11.472   c-0.309-6.216,1.713-12.21,4.35-17.761C288.783,216.805,289.668,216.675,290.552,216.536z M68.393,39.3   c-0.024-0.311-0.057-0.621-0.071-0.931c-0.177-3.913,0.165-7.808-0.98-11.152c-0.09-0.512-0.292-0.983-0.589-1.382   c-0.665-1.313-1.635-2.519-3.048-3.579c4.58-0.07,8.95,0.848,13.639,0.741c5.515-0.125,10.671-2.535,16.245-2.4   c10.161,0.246,10.854,12.651,11.847,20.138c1.338,10.083,4.04,22.205,10.717,30.552c0.023,0.034,0.045,0.068,0.069,0.101   c0.055,0.078,0.118,0.137,0.177,0.206c2.386,2.907,5.266,5.34,8.761,7.037c-7.226-0.154-15.011-2.376-19.817-7.494   c-0.124-0.202-0.275-0.365-0.447-0.497c-1.774-2.039-3.105-4.497-3.757-7.453c-0.184-0.832-1.513-0.844-1.688,0   c-1.307,6.315,1.026,11.998,2.715,17.956c-8.293-4.178-15.584-8.424-21.745-15.708c-4.946-5.847-9.314-13.146-11.172-20.804   C68.902,42.874,68.625,41.095,68.393,39.3z M58.095,24.731c0.245-0.193,0.533-0.359,0.887-0.488   c0.473-0.171,0.923,0.125,1.333,0.559c0.039,0.125,0.075,0.252,0.107,0.382c-0.83,0.111-1.658,0.228-2.483,0.357   C57.982,25.246,58.035,24.978,58.095,24.731z M62.605,31.922c1.191,12.641,2.819,24.121,11.353,34.053   C82.705,76.154,94.552,87.395,108.5,88.75c2.229,0.217,2.892-2.127,2.026-3.685c-0.031-0.526-0.243-1.063-0.727-1.543   c-0.927-0.92-1.607-2.022-2.146-3.208c2.524,1.338,5.282,2.288,7.545,2.888c6.253,1.66,14.852,1.914,20.313-2.043   c0.475-0.344,0.775-0.772,0.938-1.229c0.002-0.004,0.004-0.008,0.006-0.012c0.003-0.009,0.007-0.018,0.01-0.027   c0.51-1.147,0.275-2.59-1.036-3.142c-0.374-0.261-0.813-0.397-1.286-0.356c-13.295-3.124-18.321-15.002-20.7-27.481   c-1.225-6.423-1.546-13.467-3.63-19.741c23.902-2.028,47.998,0.695,71.885,1.989c0.361,0.833,0.726,1.665,1.091,2.496   c-9.452,0.077-18.904-0.055-28.313,1.034c-1.107,0.128-1.12,1.879,0,1.75c9.661-1.118,19.369-0.95,29.074-1.042   c0.379,0.858,0.765,1.714,1.148,2.57c-9.386,0.73-18.853-0.419-28.231,0.606c-1.109,0.121-1.121,1.873,0,1.75   c9.633-1.053,19.345,0.117,28.981-0.69c0.236,0.523,0.471,1.048,0.708,1.571c-9.273,1.098-18.568,2.005-27.836,3.149   c-1.104,0.136-1.118,1.888,0,1.75c9.519-1.175,19.065-2.098,28.588-3.237c0.501,1.095,1.012,2.186,1.52,3.279   c-9.498,2.374-19.444,1.861-29.132,2.971c-1.107,0.127-1.12,1.878,0,1.75c9.941-1.139,20.145-0.599,29.881-3.103   c0.524,1.123,1.053,2.244,1.582,3.364c-9.78,0.98-19.514,2.416-29.332,2.983c-1.122,0.065-1.128,1.815,0,1.75   c10.084-0.583,20.078-2.083,30.126-3.063c0.417,0.878,0.83,1.757,1.251,2.634c-0.006,0-0.01-0.003-0.016-0.002   c-10.168,0.522-20.297,1.156-30.249,3.429c-1.101,0.251-0.634,1.938,0.465,1.688c9.802-2.239,19.773-2.853,29.784-3.367   c0.319-0.016,0.537-0.175,0.676-0.385c0.623,1.29,1.249,2.578,1.879,3.865c-10.446,0.519-20.825,1.765-31.203,3.069   c-1.104,0.139-1.118,1.891,0,1.75c10.654-1.339,21.31-2.614,32.038-3.106c0.706,1.436,1.419,2.868,2.133,4.301   c-10.545,0.942-21.165,0.605-31.693,1.818c-1.107,0.127-1.12,1.879,0,1.75c10.805-1.245,21.704-0.859,32.521-1.897   c0.491,0.983,0.989,1.963,1.484,2.945c-5.941,1.469-12.116,1.696-18.193,2.31c-4.288,0.434-9.174,2.163-13.447,1.737   c-1.123-0.112-1.112,1.639,0,1.75c4.763,0.475,10.325-1.421,15.048-1.898c5.834-0.589,11.711-0.849,17.399-2.301   c0.695,1.373,1.393,2.745,2.093,4.116c-10.416,3.948-22.614,2.586-33.473,3.836c-1.107,0.127-1.12,1.879,0,1.75   c11.159-1.284,23.576,0.049,34.27-4.032c1.017,1.982,2.038,3.961,3.064,5.938c-10.74,3.092-22.465,0.506-33.306,3.356   c-1.091,0.287-0.628,1.975,0.465,1.688c10.959-2.881,22.809-0.204,33.661-3.465c1.797,3.45,3.606,6.893,5.425,10.331   c-11.604,1.306-23.752,0.069-34.709,4.806c-1.033,0.447-0.142,1.954,0.883,1.511c10.649-4.604,22.644-3.294,33.922-4.577   c0.285-0.032,0.495-0.174,0.635-0.362c0.709,1.338,1.419,2.677,2.131,4.014c-11.682,3.568-24.221,1.36-35.876,5.153   c-1.068,0.348-0.611,2.038,0.465,1.688c11.773-3.832,24.458-1.527,36.252-5.263c0.825,1.547,1.65,3.094,2.478,4.64   c-11.707,1.269-23.906,0.838-35.027,5.176c-1.039,0.405-0.588,2.098,0.465,1.688c11.26-4.393,23.616-3.833,35.448-5.208   c0.653,1.219,1.306,2.439,1.96,3.658c-11.712,1.693-23.715,6.521-35.646,4.903c-1.103-0.149-1.579,1.537-0.465,1.688   c12.448,1.688,24.785-3.279,36.983-4.965c0.618,1.151,1.236,2.303,1.854,3.454c-12.167,3.054-24.729,3.758-37.106,5.621   c-1.113,0.167-0.639,1.854,0.465,1.688c12.512-1.883,25.203-2.58,37.495-5.719c0.856,1.593,1.712,3.187,2.567,4.779   c-12.161,2.875-24.8,2.731-36.979,5.571c-1.099,0.256-0.633,1.943,0.465,1.688c12.309-2.87,25.085-2.693,37.368-5.666   c0.786,1.465,1.572,2.93,2.357,4.396c-1.42,0.36-2.902,0.555-4.075,0.772c-4.095,0.758-8.265,1.133-12.404,1.547   c-6.693,0.671-14.791,0.614-20.86,3.732c-1.004,0.516-0.119,2.025,0.883,1.511c6.963-3.577,16.673-3.118,24.395-3.95   c3.42-0.368,8.886-0.413,13.02-1.832c0.856,1.595,1.718,3.188,2.586,4.776c-12.175,4.336-25.587,2.287-37.989,5.833   c-1.083,0.31-0.622,1.999,0.465,1.688c12.532-3.583,26.084-1.453,38.371-5.977c0.896,1.63,1.797,3.257,2.707,4.878   c-4.597,2.963-12.893,1.603-17.796,1.77c-7.028,0.24-14.891,0.685-21.568,3.007c-1.059,0.368-0.604,2.059,0.465,1.688   c7.836-2.726,17.224-2.99,25.509-3.007c4.215-0.009,10.285,0.482,14.253-1.937c0.636,1.124,1.276,2.244,1.92,3.363   c-12.782,2.848-26.318,0.915-38.558,6.269c-1.032,0.451-0.141,1.959,0.883,1.512c12.18-5.328,25.85-3.249,38.584-6.194   c0.684,1.178,1.382,2.348,2.076,3.52c-5.303,2.324-11.531,1.993-17.205,2.516c-7.35,0.677-14.38,3.257-21.813,3.151   c-1.129-0.016-1.128,1.734,0,1.75c7.875,0.111,15.407-2.562,23.21-3.28c5.605-0.516,11.509-0.306,16.701-2.621   c0.792,1.325,1.599,2.642,2.404,3.957c-12.477,4.116-25.878,5.616-38.933,6.159c-1.124,0.047-1.129,1.797,0,1.75   c13.355-0.555,27.126-2.098,39.869-6.378c0.833,1.347,1.68,2.685,2.53,4.021c-1.403,0.354-3.459,0.813-4.15,0.988   c-3.789,0.958-7.602,1.828-11.416,2.684c-7.121,1.597-14.487,3.618-21.785,4.193c-1.117,0.088-1.126,1.839,0,1.75   c7.815-0.616,15.676-2.781,23.301-4.492c4.193-0.94,8.381-1.918,12.538-3.005c0.593-0.155,1.588-0.3,2.502-0.563   c1.094,1.7,2.206,3.389,3.329,5.07c-1.714,0.83-4.089,1.002-5.701,1.26c-3.659,0.583-7.381,0.823-11.072,1.119   c-7.537,0.605-14.853,3.853-22.443,3.439c-1.128-0.062-1.122,1.688,0,1.75c8.228,0.448,16.347-2.944,24.542-3.608   c3.976-0.323,11.568-0.01,15.69-2.433c0.794,1.174,1.606,2.335,2.417,3.497c-12.586,4.724-26.505,3.813-39.453,7.159   c-1.092,0.282-0.629,1.97,0.465,1.688c13.132-3.394,27.279-2.409,40.012-7.375c0.29,0.41,0.569,0.828,0.861,1.237   c0.707,0.992,1.442,1.964,2.164,2.945c-6.034,1.581-12.408,1.71-18.583,2.439c-7.492,0.886-14.653,3.455-22.278,3.241   c-1.129-0.031-1.126,1.719,0,1.75c8.073,0.227,15.765-2.471,23.715-3.41c6.096-0.721,12.335-0.851,18.261-2.506   c0.954,1.276,1.929,2.538,2.908,3.795c-13.34,1.719-26.638,3.726-39.932,5.763c-1.113,0.171-0.639,1.856,0.465,1.688   c13.551-2.076,27.104-4.132,40.703-5.863c0.999,1.261,2.016,2.508,3.038,3.749c-4.605,2.655-11.801,1.716-16.741,1.936   c-8.006,0.355-16.052,2.285-23.992,3.315c-1.103,0.144-1.117,1.895,0,1.75c9.086-1.179,18.175-3.204,27.349-3.426   c4.553-0.11,10.352,0.217,14.5-2.225c0.926,1.107,1.861,2.205,2.805,3.297c-12.017,3.285-24.72,3.324-37.02,4.957   c-14.912,1.979-30.081,2.051-45.086,2.846c-25.1,1.331-51.469,2.219-74.189,14.152c-9.775-10.724-12.092-25.631-17.706-38.585   c-7.293-16.827-14.559-33.635-21.591-50.58c-6.67-16.074-14.309-31.53-21.87-47.183c-7.069-14.634-12.898-29.918-17.852-45.4   C47.244,34.619,54.797,32.819,62.605,31.922z M282.221,221.712c-5.938,1.637-12.241,1.701-18.352,2.194   c-6.312,0.508-12.619,1.065-18.923,1.678c-12.79,1.242-25.546,2.84-38.218,4.983c-12.569,2.127-25.131,4.461-37.673,6.752   c-6.436,1.175-12.739,2.542-19.248,3.302c-5.628,0.657-11.152,1.49-16.418,3.677c-1.027,0.426-0.577,2.12,0.465,1.688   c5.664-2.351,11.584-3.104,17.636-3.811c5.452-0.637,10.759-1.766,16.142-2.813c13.137-2.557,26.377-4.809,39.562-7.106   c13.132-2.289,26.39-3.817,39.653-5.105c11.31-1.099,23.676-0.637,34.753-3.467c-0.308,1.069-0.568,2.152-0.792,3.245   c-11.405,3.165-23.82,2.24-35.5,3.777c-6.762,0.89-13.494,1.918-20.295,2.465c-6.087,0.489-12.214,0.654-18.198,1.952   c-6.539,1.419-12.856,3.538-19.452,4.784c-7.134,1.348-14.351,2.243-21.548,3.173c-13.349,1.723-26.703,3.513-39.581,7.567   c-1.073,0.338-0.614,2.027,0.465,1.688c13.319-4.193,27.138-5.959,40.941-7.74c12.888-1.664,25.34-3.958,37.884-7.348   c6.902-1.866,14.204-1.901,21.294-2.472c6.818-0.548,13.591-1.675,20.369-2.566c10.993-1.446,22.486-0.581,33.274-3.37   c-0.199,1.303-0.327,2.624-0.385,3.966c-0.166-0.081-0.364-0.106-0.6-0.016c-11.956,4.593-26.201,2.578-38.781,3.706   c-5.632,0.504-11.105,1.843-16.659,2.832c-6.727,1.198-13.52,2.011-20.271,3.051c-13.989,2.156-27.788,5.185-41.862,6.859   c-6.375,0.758-12.703,1.812-19.052,2.76c-6.511,0.973-12.745,4.201-19.385,4.037c-1.129-0.028-1.126,1.722,0,1.75   c5.146,0.127,9.889-1.758,14.775-3.138c6.907-1.95,14.618-2.521,21.725-3.443c13.621-1.77,27.068-4.124,40.589-6.532   c6.727-1.197,13.519-2.01,20.27-3.051c7.263-1.119,14.355-2.881,21.69-3.538c12.236-1.097,25.751,0.879,37.426-3.605   c0.042-0.016,0.066-0.045,0.103-0.065c0.017,1.352,0.134,2.693,0.326,4.027c-11.528,1.331-22.962,2.713-34.417,4.652   c-12.909,2.187-25.992,3.107-38.938,5.118c-25.639,3.983-51.422,7.685-76.798,13.138c-1.104,0.237-0.635,1.924,0.465,1.688   c24.766-5.322,49.921-8.941,74.94-12.848c12.333-1.925,24.768-2.9,37.091-4.803c12.651-1.952,25.23-3.74,37.94-5.224   c0.334,1.789,0.762,3.564,1.215,5.329l-0.047-0.006c-4.876-0.491-10.017,0.6-14.84,1.195c-6.544,0.808-13.056,1.813-19.572,2.819   c-14.267,2.204-28.507,4.573-42.741,6.976c-12.775,2.155-25.614,4.105-38.344,6.52c-6.34,1.201-12.566,2.968-18.892,4.245   c-6.662,1.346-13.905,2.576-20.675,1.325c-6.555-1.212-8.693-5.649-8.315-11.827c3.221-13.859,17.868-20.165,30.298-23.652   c15.296-4.292,31.477-5.408,47.186-7.302c17.461-2.104,34.925-4.186,52.446-5.729c11.789-1.039,23.71-1.277,35.485-2.618   C283.251,218.844,282.705,220.27,282.221,221.712z M242.521,213.581c-18.793,1.744-37.522,4.12-56.261,6.361   c-15.792,1.89-31.951,3.387-47.008,8.823c-12.346,4.458-24.724,12.878-27.652,26.484c-0.049,0.229-0.066,0.447-0.076,0.662   c-0.014,0.092-0.042,0.173-0.049,0.269c-2.622,31.28,40.906,16.558,57.348,13.44c25.392-4.815,51.024-8.751,76.554-12.767   c11.248-1.77,22.716-4.061,34.122-4.429c2.346-0.075,9.861,1.571,5.034,4.998c-2.682,1.904-6.524,2.384-9.71,2.807   c-0.129,0.018-0.241,0.058-0.362,0.085c-0.187,0.005-0.372,0.007-0.568,0.04c-30.912,5.259-62.019,9.24-92.935,14.551   c-8.232,1.414-16.454,2.89-24.67,4.394c-7.85,1.438-15.69,3.4-23.655,4.062c-6.917,0.574-13.656-0.434-19.79-3.759   c-7.328-3.974-12.1-11.051-16.393-17.921c-3.844-7.58-7.022-15.467-10.428-23.248c-3.542-8.093-7.484-15.988-10.94-24.124   c-7.193-16.933-15.896-33.108-22.978-50.097c-6.93-16.625-13.082-33.563-20.105-50.15C24.822,97.115,18.69,80.125,13.257,62.545   c5.729-11.54,14.746-19.344,25.483-24.275c4.641,14.432,10.103,28.602,16.44,42.375c7.955,17.285,16.61,34.079,23.916,51.686   c6.998,16.864,14.54,33.519,21.507,50.382c5.302,12.83,7.891,27.254,17.491,37.797c0.036,0.43,0.389,0.834,0.851,0.853   c0.455,0.236,0.966-0.039,1.16-0.467c23.952-12.637,51.989-12.793,78.399-14.258c14.574-0.809,29.086-1.236,43.587-3.021   c11.633-1.432,23.528-1.566,34.848-4.798c0.583,0.663,1.152,1.339,1.742,1.996c0.372,0.415,0.739,0.848,1.106,1.284   c-13.403,4.162-27.576,4.892-41.466,6.212c-1.113,0.105-1.124,1.856,0,1.75c14.28-1.357,28.892-2.085,42.645-6.491   c0.003-0.001,0.005-0.004,0.009-0.005c1.646,2.1,3.197,4.373,4.568,6.694C271.33,212.19,256.775,212.258,242.521,213.581z" fill="#2F353A"/><path d="M177.21,97.035c10.135-4.949,22.046-1.748,32.535-5.532c1.054-0.38,0.599-2.071-0.465-1.688   c-10.647,3.841-22.62,0.663-32.953,5.709C175.313,96.02,176.2,97.528,177.21,97.035z" fill="#2F353A"/></g></svg>