<?xml version="1.0" encoding="iso-8859-1"?>
<!-- Generator: Adobe Illustrator 19.0.0, SVG Export Plug-In . SVG Version: 6.00 Build 0)  -->
<svg version="1.1" id="Capa_1" xmlns="http://www.w3.org/2000/svg" xmlns:xlink="http://www.w3.org/1999/xlink" x="0px" y="0px"
	 viewBox="0 0 512 512" style="enable-background:new 0 0 512 512;" xml:space="preserve">
<g>
	<g>
		<path d="M437.987,364.012c-16.803,0-32.306,5.639-44.741,15.111l-78.364-78.364c9.472-12.435,15.113-27.941,15.113-44.743
			c0-8.022-1.3-15.743-3.673-22.982l80.656-39.105c10.544,14.579,27.682,24.091,47.009,24.091c31.978,0,57.995-26.017,57.995-57.995
			s-26.017-57.995-57.995-57.995c-31.978,0-57.995,26.017-57.995,57.995c0,5.522,0.792,10.858,2.24,15.921l-80.651,39.103
			c-11.522-17.262-30.101-29.415-51.58-32.331v-26.583c13.881-4.281,23.998-17.228,23.998-32.494
			c0-18.747-15.251-33.997-33.997-33.997s-33.997,15.251-33.997,33.997c0,15.268,10.117,28.215,23.998,32.494v26.583
			c-12.937,1.756-24.82,6.858-34.744,14.418l-64.638-64.638c15.761-20.207,21.332-46.978,14.505-72.065
			c-1.451-5.33-6.947-8.475-12.274-7.022c-5.329,1.45-8.472,6.945-7.022,12.274c5.81,21.349-0.244,44.309-15.794,59.993
			c-0.065,0.062-0.134,0.115-0.198,0.179c-0.056,0.056-0.104,0.118-0.158,0.175c-24.185,24.003-63.387,23.951-87.501-0.164
			c-24.172-24.171-24.172-63.502,0-87.674c15.287-15.288,36.997-21.459,58.076-16.511c5.373,1.26,10.757-2.072,12.02-7.449
			c1.262-5.376-2.073-10.757-7.449-12.02C72.958-4.328,44.252,3.834,24.035,24.05c-31.969,31.969-31.969,83.987,0,115.957
			c15.985,15.985,36.981,23.977,57.978,23.977c17.851,0,35.688-5.799,50.459-17.352l64.643,64.643
			c-9.471,12.435-15.11,27.939-15.11,44.739c0,40.801,33.193,73.994,73.994,73.994c16.802,0,32.305-5.639,44.739-15.11
			l78.365,78.364c-9.472,12.435-15.111,27.94-15.111,44.741c0,40.801,33.193,73.994,73.994,73.994
			c40.801,0,73.994-33.193,73.994-73.994C511.981,397.204,478.787,364.012,437.987,364.012z M453.985,122.026
			c20.951,0,37.997,17.046,37.997,37.997c0,20.951-17.046,37.997-37.997,37.997c-20.951,0-37.997-17.046-37.997-37.997
			C415.988,139.071,433.034,122.026,453.985,122.026z M242,123.637c0-7.719,6.279-13.999,13.999-13.999
			c7.719,0,13.999,6.279,13.999,13.999c0,7.719-6.279,13.999-13.999,13.999C248.28,137.636,242,131.357,242,123.637z
			 M255.999,310.011c-29.774,0-53.996-24.222-53.996-53.996c0-29.774,24.222-53.996,53.996-53.996s53.996,24.222,53.996,53.996
			C309.995,285.788,285.773,310.011,255.999,310.011z M437.987,492.002c-29.774,0-53.996-24.222-53.996-53.996
			c0-29.774,24.222-53.996,53.996-53.996s53.996,24.222,53.996,53.996C491.982,467.78,467.76,492.002,437.987,492.002z"/>
	</g>
</g>
<g>
	<g>
		<path d="M140.333,24.394l-0.359-0.361c-3.914-3.895-10.244-3.881-14.141,0.034c-3.896,3.915-3.881,10.245,0.034,14.141
			l0.258,0.261c1.956,1.974,4.53,2.962,7.104,2.962c2.543,0,5.087-0.964,7.036-2.896C144.19,34.649,144.22,28.318,140.333,24.394z"
			/>
	</g>
</g>
<g>
	<g>
		<path d="M165.827,346.187c-3.905-3.905-10.236-3.905-14.141,0L91.31,406.563c-9.431-6.638-20.911-10.553-33.296-10.553
			c-31.978,0-57.995,26.017-57.995,57.995C0.019,485.983,26.036,512,58.014,512c31.978,0,57.995-26.017,57.995-57.995
			c0-12.387-3.916-23.869-10.557-33.301l60.375-60.375C169.732,356.424,169.732,350.092,165.827,346.187z M58.014,492.002
			c-20.951,0-37.997-17.046-37.997-37.997c0-20.951,17.046-37.997,37.997-37.997c20.951,0,37.997,17.046,37.997,37.997
			C96.011,474.956,78.965,492.002,58.014,492.002z"/>
	</g>
</g>
<g>
	<g>
		<path d="M189.575,322.44c-1.86-1.86-4.44-2.93-7.069-2.93s-5.21,1.07-7.069,2.93c-1.86,1.86-2.93,4.44-2.93,7.069
			s1.07,5.21,2.93,7.069c1.86,1.86,4.44,2.93,7.069,2.93c2.63,0,5.21-1.07,7.069-2.93c1.86-1.86,2.93-4.44,2.93-7.069
			S191.434,324.299,189.575,322.44z"/>
	</g>
</g>
<g>
</g>
<g>
</g>
<g>
</g>
<g>
</g>
<g>
</g>
<g>
</g>
<g>
</g>
<g>
</g>
<g>
</g>
<g>
</g>
<g>
</g>
<g>
</g>
<g>
</g>
<g>
</g>
<g>
</g>
</svg>
