<?xml version="1.0" encoding="iso-8859-1"?>
<!-- Generator: Adobe Illustrator 19.0.0, SVG Export Plug-In . SVG Version: 6.00 Build 0)  -->
<svg version="1.1" id="Capa_1" xmlns="http://www.w3.org/2000/svg" xmlns:xlink="http://www.w3.org/1999/xlink" x="0px" y="0px"
	 viewBox="0 0 429.722 429.722" style="enable-background:new 0 0 429.722 429.722;" xml:space="preserve">
<g>
	<g>
		<path d="M214.861,81.22c-3.77,0-6.827,3.057-6.827,6.827v280.235c0,3.77,3.057,6.827,6.827,6.827s6.827-3.057,6.827-6.828V88.047
			C221.687,84.277,218.631,81.22,214.861,81.22z"/>
	</g>
</g>
<g>
	<g>
		<path d="M255.795,66.244L227.099,8.847C224.285,3.227,219.826,0,214.859,0c-4.966,0.003-9.424,3.227-12.237,8.851l-28.691,57.39
			c-2.697,5.391-2.707,10.97-0.024,15.314s7.677,6.833,13.703,6.833h54.501c6.023,0,11.017-2.49,13.701-6.833
			C258.495,77.215,258.488,71.634,255.795,66.244z M242.111,74.733H187.61c-1.27,0-1.929-0.276-2.033-0.276
			c-0.007,0-0.014,0-0.014,0.002c-0.043-0.159-0.032-0.893,0.577-2.109l28.692-57.393c0.01-0.019,0.017-0.036,0.027-0.053
			c0.01,0.017,0.017,0.032,0.027,0.053l28.693,57.393c0.608,1.213,0.621,1.947,0.674,1.954
			C244.128,74.416,243.468,74.733,242.111,74.733z"/>
	</g>
</g>
<g>
	<g>
		<path d="M214.861,361.455c-18.819,0-34.133,15.314-34.133,34.133c0,18.819,15.314,34.133,34.133,34.133
			s34.133-15.314,34.133-34.133C248.994,376.769,233.68,361.455,214.861,361.455z M214.861,416.068
			c-11.293,0-20.48-9.187-20.48-20.48s9.187-20.48,20.48-20.48s20.48,9.187,20.48,20.48
			C235.341,406.881,226.154,416.068,214.861,416.068z"/>
	</g>
</g>
<g>
	<g>
		<path d="M219.051,280.677l-65.63-49.804V183.96c0-3.77-3.057-6.827-6.827-6.827s-6.827,3.057-6.827,6.827v50.304
			c0,2.137,1,4.147,2.7,5.438l68.33,51.85c1.234,0.935,2.683,1.389,4.12,1.389c2.063,0,4.105-0.93,5.444-2.7
			C222.641,287.237,222.054,282.953,219.051,280.677z"/>
	</g>
</g>
<g>
	<g>
		<path d="M283.192,136.173c-3.77,0-6.827,3.057-6.827,6.827v46.913l-65.63,49.804c-3.004,2.277-3.591,6.56-1.311,9.564
			c1.34,1.77,3.379,2.7,5.443,2.7c1.437,0,2.886-0.454,4.122-1.389l68.33-51.85c1.7-1.29,2.7-3.301,2.7-5.438V143
			C290.019,139.23,286.962,136.173,283.192,136.173z"/>
	</g>
</g>
<g>
	<g>
		<path d="M146.594,136.175c-15.056,0-27.307,12.25-27.307,27.307c0,15.056,12.25,27.307,27.307,27.307s27.307-12.25,27.307-27.307
			C173.901,148.425,161.65,136.175,146.594,136.175z M146.594,177.135c-7.53,0-13.653-6.123-13.653-13.653
			c0-7.53,6.123-13.653,13.653-13.653s13.653,6.124,13.653,13.653C160.247,171.011,154.124,177.135,146.594,177.135z"/>
	</g>
</g>
<g>
	<g>
		<path d="M296.844,95.213h-27.433c-7.494,0-13.59,6.096-13.59,13.59v27.435c0,7.494,6.096,13.59,13.59,13.59h27.433
			c7.494,0,13.59-6.098,13.59-13.592v-27.433C310.434,101.309,304.338,95.213,296.844,95.213z M269.474,136.238v-27.37l27.307-0.065
			l0.063,27.372L269.474,136.238z"/>
	</g>
</g>
<g>
</g>
<g>
</g>
<g>
</g>
<g>
</g>
<g>
</g>
<g>
</g>
<g>
</g>
<g>
</g>
<g>
</g>
<g>
</g>
<g>
</g>
<g>
</g>
<g>
</g>
<g>
</g>
<g>
</g>
</svg>
